# xmcd
#
# Track frame offsets:
#	150
#	17906
#	31979
#	48625
#	65236
#	81064
#	97212
#	112588
#	128783
#	146091
#
# Disc length: 2136 seconds
#
# Revision: 1
# Processed by: cddbd v1.5.2PL0 Copyright (c) Steve Scherf et al.
# Submitted via: audiograbber 1.83.01
#
DISCID=8b08560a
DTITLE=Sophie Madeleine - The Rhythm You Started
DYEAR=2010
DGENRE=Folk
TTITLE0=Stars
TTITLE1=The Rhythm You Started
TTITLE2=Little One
TTITLE3=Song To Fall In Love To
TTITLE4=Oil and Gold
TTITLE5=Battles
TTITLE6=Butterfly Child
TTITLE7=Change The Numbers
TTITLE8=Come Follow Me
TTITLE9=Hypothetically Yours
EXTD=This is only under 'Country' because of disc id collisions in categories '
EXTD=Folk', 'Misc' and 'Rock'.\n
EXTT0=
EXTT1=
EXTT2=
EXTT3=
EXTT4=
EXTT5=
EXTT6=
EXTT7=
EXTT8=
EXTT9=
PLAYORDER=
